<svg viewBox="0 0 16 16" xmlns="http://www.w3.org/2000/svg" xml:space="preserve" style="fill-rule:evenodd;clip-rule:evenodd;stroke-linecap:round;stroke-linejoin:round;stroke-miterlimit:1.5"><path d="M7.744 13.35a.87.87 0 0 1-.87.865H5.031a2.673 2.673 0 0 1-2.66-2.66V3.551c0-.005-.004-.009-.008-.009a.885.885 0 0 1-.881-.88c0-.483.398-.881.881-.881h2.712a.01.01 0 0 0 .009-.007A2.221 2.221 0 0 1 7.254 0c1.05 0 1.962.746 2.171 1.774 0 .004.004.007.008.007h2.713c.483 0 .88.398.88.881s-.397.88-.88.88a.009.009 0 0 0-.009.009v5.09a.875.875 0 0 1-.873.874h-.013a.876.876 0 0 1-.875-.874v-5.09a.009.009 0 0 0-.009-.009H4.141c-.004 0-.008.004-.008.009v8.004c0 .493.405.899.898.899h1.843a.871.871 0 0 1 .87.874v.022Zm-2.269-2.693a.437.437 0 0 1-.435-.436V4.885c0-.239.196-.436.435-.436.24 0 .436.197.436.436v5.336c0 .24-.196.436-.436.436Zm1.779 0a.438.438 0 0 1-.436-.436V4.885c0-.239.197-.436.436-.436s.436.197.436.436v5.336c0 .24-.197.436-.436.436Zm2.215-1.486a.436.436 0 0 1-.438.436H9.03a.436.436 0 0 1-.433-.436V4.885c0-.239.197-.436.436-.436s.436.197.436.436v4.286ZM7.254.874a1.335 1.335 0 0 0-1.245.895c-.001.003-.001.006.001.008.002.003.004.004.007.004h2.474a.01.01 0 0 0 .008-.004.01.01 0 0 0 .001-.008A1.337 1.337 0 0 0 7.254.874Z" style="fill-rule:nonzero"/><path style="fill:none;stroke:#000;stroke-width:1px" d="M11.277 11.168h.68v.68h-.68zM13.525 11.168h.68v.68h-.68zM9.032 11.168h.68v.68h-.68zM11.277 13.31h.68v.68h-.68zM13.525 13.31h.68v.68h-.68zM9.032 13.31h.68v.68h-.68z"/></svg>