<svg viewBox="0 0 16 16" xmlns="http://www.w3.org/2000/svg" xml:space="preserve" fill="context-fill" style="fill-rule:evenodd;clip-rule:evenodd;stroke-linejoin:round;stroke-miterlimit:2"><path d="M14.3 13.017h.008a2.995 2.995 0 0 1-.696-.133.376.376 0 1 1-.724.137.374.374 0 0 1 .234-.345 3.004 3.004 0 0 1-1.585-2.427v.01c0-.416-1.216-.173-1.057.211-.159-.384-1.19.306-.895.6-.295-.294-.982.737-.597.896-.385-.159-.625 1.057-.21 1.057-.415 0-.172 1.216.211 1.056-.383.16.306 1.189.6.895-.294.294.737.982.896.599-.159.384 1.057.625 1.057.209 0 .416 1.215.173 1.056-.211.159.384 1.189-.306.895-.599.294.293.982-.738.599-.897.383.158.624-1.058.208-1.058Zm-4.164.187a.376.376 0 0 1-.7-.186.376.376 0 0 1 .561-.325.376.376 0 0 1 .139.511Zm.732 1.633a.376.376 0 0 1-.563-.323c0-.206.169-.375.374-.375a.376.376 0 0 1 .189.699v-.001Zm-.19-2.944a.376.376 0 0 1-.375-.374c0-.205.169-.375.375-.375.205 0 .374.17.374.375a.376.376 0 0 1-.374.374Zm.859 1.498a.376.376 0 0 1-.375-.374c0-.205.169-.375.375-.375.205 0 .374.17.374.375a.376.376 0 0 1-.374.374Zm.863 1.498a.376.376 0 0 1-.374-.374c0-.206.169-.375.374-.375.206 0 .375.169.375.375a.376.376 0 0 1-.375.374Z" style="fill-rule:nonzero"/><path d="M8.778 13.025h-.007c.236.017.47.061.696.133a.375.375 0 1 1 .67.055.366.366 0 0 1-.181.153 3.005 3.005 0 0 1 1.586 2.426v-.009c0 .415 1.216.173 1.056-.212.16.385 1.191-.305.896-.599.295.294.981-.737.597-.896.384.159.625-1.057.209-1.057.416 0 .173-1.216-.211-1.056.384-.16-.306-1.189-.599-.895.293-.294-.738-.982-.896-.599.158-.384-1.058-.625-1.057-.209 0-.416-1.216-.173-1.057.211-.159-.384-1.189.305-.895.599-.294-.294-.981.738-.599.897-.383-.158-.623 1.058-.208 1.058Zm4.165-.187a.373.373 0 0 1 .325-.188c.205 0 .374.169.374.374a.376.376 0 0 1-.561.325.376.376 0 0 1-.138-.511Zm-.732-1.633a.367.367 0 0 1 .188-.052c.206 0 .375.17.375.375a.374.374 0 1 1-.563-.324v.001Zm.19 2.943c.205 0 .374.169.374.375a.376.376 0 0 1-.374.374.376.376 0 0 1-.375-.374c0-.206.169-.375.375-.375Zm-.859-1.498c.205 0 .374.169.374.375a.376.376 0 0 1-.374.374.376.376 0 0 1-.375-.374c0-.206.169-.375.375-.375Zm-.864-1.498c.206 0 .375.17.375.375a.376.376 0 0 1-.375.374.376.376 0 0 1-.374-.374c0-.205.169-.375.374-.375Z" style="fill-rule:nonzero"/><path d="M7.744 13.35a.87.87 0 0 1-.87.865H5.031a2.673 2.673 0 0 1-2.66-2.66V3.551c0-.005-.004-.009-.008-.009a.885.885 0 0 1-.881-.88c0-.483.398-.881.881-.881h2.712a.01.01 0 0 0 .009-.007A2.221 2.221 0 0 1 7.254 0c1.05 0 1.962.746 2.171 1.774 0 .004.004.007.008.007h2.713c.483 0 .88.398.88.881s-.397.88-.88.88a.009.009 0 0 0-.009.009v5.09a.875.875 0 0 1-.873.874h-.013a.876.876 0 0 1-.875-.874v-5.09a.009.009 0 0 0-.009-.009H4.141c-.004 0-.008.004-.008.009v8.004c0 .493.405.899.898.899h1.843a.871.871 0 0 1 .87.874v.022Zm-2.269-2.693a.437.437 0 0 1-.435-.436V4.885c0-.239.196-.436.435-.436.24 0 .436.197.436.436v5.336c0 .24-.196.436-.436.436Zm1.779 0a.438.438 0 0 1-.436-.436V4.885c0-.239.197-.436.436-.436s.436.197.436.436v5.336c0 .24-.197.436-.436.436Zm2.215-1.486a.436.436 0 0 1-.438.436H9.03a.436.436 0 0 1-.433-.436V4.885c0-.239.197-.436.436-.436s.436.197.436.436v4.286ZM7.254.874a1.335 1.335 0 0 0-1.245.895c-.001.003-.001.006.001.008.002.003.004.004.007.004h2.474a.01.01 0 0 0 .008-.004.01.01 0 0 0 .001-.008A1.337 1.337 0 0 0 7.254.874Z" style="fill-rule:nonzero"/></svg>