<svg viewBox="0 0 28 28" fill="none" xmlns="http://www.w3.org/2000/svg"> <g> <path id="Vector" d="M0 7C0 5.60761 0.553123 4.27226 1.53769 3.28769C2.52226 2.30312 3.85761 1.75 5.25 1.75H22.75C24.1424 1.75 25.4777 2.30312 26.4623 3.28769C27.4469 4.27226 28 5.60761 28 7V21C28 22.3924 27.4469 23.7277 26.4623 24.7123C25.4777 25.6969 24.1424 26.25 22.75 26.25H5.25C3.85761 26.25 2.52226 25.6969 1.53769 24.7123C0.553123 23.7277 0 22.3924 0 21L0 7ZM3.5 7V21C3.5 21.4641 3.68437 21.9092 4.01256 22.2374C4.34075 22.5656 4.78587 22.75 5.25 22.75H8.75V5.25H5.25C4.78587 5.25 4.34075 5.43437 4.01256 5.76256C3.68437 6.09075 3.5 6.53587 3.5 7ZM10.5 5.25V22.75H22.75C23.2141 22.75 23.6592 22.5656 23.9874 22.2374C24.3156 21.9092 24.5 21.4641 24.5 21V7C24.5 6.53587 24.3156 6.09075 23.9874 5.76256C23.6592 5.43437 23.2141 5.25 22.75 5.25H10.5Z" fill="white"/> </g> </svg>