<?xml version="1.0" encoding="UTF-8" standalone="no"?><!DOCTYPE svg PUBLIC "-//W3C//DTD SVG 1.1//EN" "http://www.w3.org/Graphics/SVG/1.1/DTD/svg11.dtd"><svg width="100%" height="100%" viewBox="0 0 16 16" version="1.1" xmlns="http://www.w3.org/2000/svg" xmlns:xlink="http://www.w3.org/1999/xlink" xml:space="preserve" xmlns:serif="http://www.serif.com/" style="fill-rule:evenodd;clip-rule:evenodd;stroke-linejoin:round;stroke-miterlimit:2;"><path d="M14.3,13.017c0.003,0 0.005,0 0.008,-0c-0.237,-0.017 -0.47,-0.061 -0.696,-0.133c0.042,0.103 0.034,0.22 -0.02,0.317c-0.066,0.12 -0.192,0.195 -0.329,0.195c-0.206,-0 -0.375,-0.169 -0.375,-0.375c0,-0.067 0.019,-0.134 0.054,-0.192c0.041,-0.07 0.105,-0.123 0.18,-0.153c-0.909,-0.483 -1.508,-1.4 -1.585,-2.427l-0,0.01c-0,-0.416 -1.216,-0.173 -1.057,0.211c-0.159,-0.384 -1.19,0.306 -0.895,0.6c-0.295,-0.294 -0.982,0.737 -0.597,0.896c-0.385,-0.159 -0.625,1.057 -0.21,1.057c-0.415,-0 -0.172,1.216 0.211,1.056c-0.383,0.16 0.306,1.189 0.6,0.895c-0.294,0.294 0.737,0.982 0.896,0.599c-0.159,0.384 1.057,0.625 1.057,0.209c-0,0.416 1.215,0.173 1.056,-0.211c0.159,0.384 1.189,-0.306 0.895,-0.599c0.294,0.293 0.982,-0.738 0.599,-0.897c0.383,0.158 0.624,-1.058 0.208,-1.058Zm-4.164,0.187c-0.067,0.116 -0.191,0.188 -0.325,0.188c-0.206,0 -0.375,-0.169 -0.375,-0.374c0,-0.206 0.169,-0.375 0.375,-0.375c0.065,0 0.13,0.017 0.186,0.05c0.116,0.067 0.188,0.191 0.188,0.325c0,0.065 -0.017,0.129 -0.049,0.186Zm0.732,1.633c-0.057,0.034 -0.123,0.051 -0.189,0.051c-0.205,0 -0.374,-0.169 -0.374,-0.374c-0,-0.206 0.169,-0.375 0.374,-0.375c0.133,0 0.257,0.071 0.324,0.186c0.033,0.058 0.051,0.123 0.051,0.189c-0,0.134 -0.071,0.257 -0.186,0.324l-0,-0.001Zm-0.19,-2.944c-0.206,0 -0.375,-0.169 -0.375,-0.374c0,-0.205 0.169,-0.375 0.375,-0.375c0.205,0 0.374,0.17 0.374,0.375c0,0.205 -0.169,0.374 -0.374,0.374Zm0.859,1.498c-0.206,0 -0.375,-0.169 -0.375,-0.374c0,-0.205 0.169,-0.375 0.375,-0.375c0.205,0 0.374,0.17 0.374,0.375c0,0.205 -0.169,0.374 -0.374,0.374Zm0.863,1.498c-0.205,0 -0.374,-0.169 -0.374,-0.374c-0,-0.206 0.169,-0.375 0.374,-0.375c0.206,0 0.375,0.169 0.375,0.375c-0,0.205 -0.169,0.374 -0.375,0.374Z" style="fill-rule:nonzero;"/><path d="M8.778,13.025c-0.002,-0 -0.005,-0 -0.007,-0c0.236,0.017 0.47,0.061 0.696,0.133c-0.042,-0.103 -0.035,-0.22 0.02,-0.317c0.065,-0.12 0.192,-0.195 0.329,-0.195c0.205,-0 0.374,0.169 0.374,0.374c0,0.068 -0.018,0.135 -0.053,0.193c-0.042,0.07 -0.105,0.123 -0.181,0.153c0.909,0.483 1.509,1.4 1.586,2.426l-0,-0.009c-0,0.415 1.216,0.173 1.056,-0.212c0.16,0.385 1.191,-0.305 0.896,-0.599c0.295,0.294 0.981,-0.737 0.597,-0.896c0.384,0.159 0.625,-1.057 0.209,-1.057c0.416,0 0.173,-1.216 -0.211,-1.056c0.384,-0.16 -0.306,-1.189 -0.599,-0.895c0.293,-0.294 -0.738,-0.982 -0.896,-0.599c0.158,-0.384 -1.058,-0.625 -1.057,-0.209c-0,-0.416 -1.216,-0.173 -1.057,0.211c-0.159,-0.384 -1.189,0.305 -0.895,0.599c-0.294,-0.294 -0.981,0.738 -0.599,0.897c-0.383,-0.158 -0.623,1.058 -0.208,1.058Zm4.165,-0.187c0.066,-0.117 0.191,-0.188 0.325,-0.188c0.205,-0 0.374,0.169 0.374,0.374c0,0.205 -0.169,0.374 -0.374,0.374c-0.066,0 -0.13,-0.017 -0.187,-0.049c-0.116,-0.067 -0.188,-0.191 -0.188,-0.325c0,-0.065 0.017,-0.13 0.05,-0.186Zm-0.732,-1.633c0.057,-0.034 0.122,-0.052 0.188,-0.052c0.206,0 0.375,0.17 0.375,0.375c-0,0.205 -0.169,0.374 -0.375,0.374c-0.133,0 -0.256,-0.071 -0.323,-0.186c-0.034,-0.057 -0.051,-0.122 -0.051,-0.189c-0,-0.133 0.07,-0.256 0.186,-0.323l-0,0.001Zm0.19,2.943c0.205,0 0.374,0.169 0.374,0.375c0,0.205 -0.169,0.374 -0.374,0.374c-0.206,0 -0.375,-0.169 -0.375,-0.374c0,-0.206 0.169,-0.375 0.375,-0.375Zm-0.859,-1.498c0.205,0 0.374,0.169 0.374,0.375c0,0.205 -0.169,0.374 -0.374,0.374c-0.206,0 -0.375,-0.169 -0.375,-0.374c0,-0.206 0.169,-0.375 0.375,-0.375Zm-0.864,-1.498c0.206,0 0.375,0.17 0.375,0.375c-0,0.205 -0.169,0.374 -0.375,0.374c-0.205,0 -0.374,-0.169 -0.374,-0.374c-0,-0.205 0.169,-0.375 0.374,-0.375Z" style="fill-rule:nonzero;"/><path d="M7.744,13.35c-0.003,0.478 -0.391,0.865 -0.87,0.865c-0.794,-0 -1.843,-0 -1.843,-0c-1.459,-0 -2.66,-1.201 -2.66,-2.66l0,-8.004c0,-0.005 -0.004,-0.009 -0.008,-0.009c-0.483,0 -0.881,-0.397 -0.881,-0.88c0,-0.483 0.398,-0.881 0.881,-0.881l2.712,0c0.004,0 0.008,-0.003 0.009,-0.007c0.209,-1.028 1.121,-1.774 2.17,-1.774c1.05,-0 1.962,0.746 2.171,1.774c0,0.004 0.004,0.007 0.008,0.007l2.713,0c0.483,0 0.88,0.398 0.88,0.881c0,0.483 -0.397,0.88 -0.88,0.88c-0.005,0 -0.009,0.004 -0.009,0.009l0,5.09c0,0.482 -0.391,0.873 -0.873,0.874c-0.005,-0 -0.009,-0 -0.013,-0c-0.232,-0 -0.455,-0.092 -0.619,-0.256c-0.164,-0.164 -0.256,-0.386 -0.256,-0.618c-0,-1.663 -0,-5.09 -0,-5.09c-0,-0.005 -0.004,-0.009 -0.009,-0.009l-6.226,0c-0.004,0 -0.008,0.004 -0.008,0.009l-0,8.004c-0,0.493 0.405,0.899 0.898,0.899l1.843,-0c0.232,-0 0.453,0.092 0.617,0.256c0.163,0.164 0.254,0.386 0.253,0.618l-0,0.022Zm-2.269,-2.693c-0.239,0 -0.435,-0.196 -0.435,-0.436l-0,-5.336c-0,-0.239 0.196,-0.436 0.435,-0.436c0.24,0 0.436,0.197 0.436,0.436l0,5.336c0,0.24 -0.196,0.436 -0.436,0.436Zm1.779,0c-0.239,0 -0.436,-0.196 -0.436,-0.436l0,-5.336c0,-0.239 0.197,-0.436 0.436,-0.436c0.239,0 0.436,0.197 0.436,0.436l0,5.336c0,0.24 -0.197,0.436 -0.436,0.436Zm2.215,-1.486c-0,0.116 -0.046,0.228 -0.129,0.309c-0.082,0.082 -0.193,0.127 -0.309,0.127c-0,-0 -0.001,-0 -0.001,-0c-0.24,-0.002 -0.433,-0.196 -0.433,-0.436c0,-1.174 0,-4.286 0,-4.286c0,-0.239 0.197,-0.436 0.436,-0.436c0.239,0 0.436,0.197 0.436,0.436l-0,4.286Zm-2.215,-8.297c0,0 0,0 0,0c-0.561,0.006 -1.061,0.365 -1.245,0.895c-0.001,0.003 -0.001,0.006 0.001,0.008c0.002,0.003 0.004,0.004 0.007,0.004l2.474,0c0.003,0 0.006,-0.001 0.008,-0.004c0.001,-0.002 0.002,-0.005 0.001,-0.008c-0.185,-0.53 -0.685,-0.889 -1.246,-0.895Z" style="fill-rule:nonzero;"/></svg>