<?xml version="1.0" encoding="UTF-8" standalone="no"?><!DOCTYPE svg PUBLIC "-//W3C//DTD SVG 1.1//EN" "http://www.w3.org/Graphics/SVG/1.1/DTD/svg11.dtd"><svg width="100%" height="100%" viewBox="0 0 16 16" version="1.1" xmlns="http://www.w3.org/2000/svg" xmlns:xlink="http://www.w3.org/1999/xlink" xml:space="preserve" xmlns:serif="http://www.serif.com/" style="fill-rule:evenodd;clip-rule:evenodd;stroke-linecap:round;stroke-linejoin:round;stroke-miterlimit:1.5;"><path d="M7.744,13.35c-0.003,0.478 -0.391,0.865 -0.87,0.865c-0.794,-0 -1.843,-0 -1.843,-0c-1.459,-0 -2.66,-1.201 -2.66,-2.66l0,-8.004c0,-0.005 -0.004,-0.009 -0.008,-0.009c-0.483,0 -0.881,-0.397 -0.881,-0.88c0,-0.483 0.398,-0.881 0.881,-0.881l2.712,0c0.004,0 0.008,-0.003 0.009,-0.007c0.209,-1.028 1.121,-1.774 2.17,-1.774c1.05,-0 1.962,0.746 2.171,1.774c0,0.004 0.004,0.007 0.008,0.007l2.713,0c0.483,0 0.88,0.398 0.88,0.881c0,0.483 -0.397,0.88 -0.88,0.88c-0.005,0 -0.009,0.004 -0.009,0.009l0,5.09c0,0.482 -0.391,0.873 -0.873,0.874c-0.005,-0 -0.009,-0 -0.013,-0c-0.232,-0 -0.455,-0.092 -0.619,-0.256c-0.164,-0.164 -0.256,-0.386 -0.256,-0.618c-0,-1.663 -0,-5.09 -0,-5.09c-0,-0.005 -0.004,-0.009 -0.009,-0.009l-6.226,0c-0.004,0 -0.008,0.004 -0.008,0.009l-0,8.004c-0,0.493 0.405,0.899 0.898,0.899l1.843,-0c0.232,-0 0.453,0.092 0.617,0.256c0.163,0.164 0.254,0.386 0.253,0.618l-0,0.022Zm-2.269,-2.693c-0.239,0 -0.435,-0.196 -0.435,-0.436l-0,-5.336c-0,-0.239 0.196,-0.436 0.435,-0.436c0.24,0 0.436,0.197 0.436,0.436l0,5.336c0,0.24 -0.196,0.436 -0.436,0.436Zm1.779,0c-0.239,0 -0.436,-0.196 -0.436,-0.436l0,-5.336c0,-0.239 0.197,-0.436 0.436,-0.436c0.239,0 0.436,0.197 0.436,0.436l0,5.336c0,0.24 -0.197,0.436 -0.436,0.436Zm2.215,-1.486c-0,0.116 -0.046,0.228 -0.129,0.309c-0.082,0.082 -0.193,0.127 -0.309,0.127c-0,-0 -0.001,-0 -0.001,-0c-0.24,-0.002 -0.433,-0.196 -0.433,-0.436c0,-1.174 0,-4.286 0,-4.286c0,-0.239 0.197,-0.436 0.436,-0.436c0.239,0 0.436,0.197 0.436,0.436l-0,4.286Zm-2.215,-8.297c0,0 0,0 0,0c-0.561,0.006 -1.061,0.365 -1.245,0.895c-0.001,0.003 -0.001,0.006 0.001,0.008c0.002,0.003 0.004,0.004 0.007,0.004l2.474,0c0.003,0 0.006,-0.001 0.008,-0.004c0.001,-0.002 0.002,-0.005 0.001,-0.008c-0.185,-0.53 -0.685,-0.889 -1.246,-0.895Z" style="fill-rule:nonzero;"/><rect x="8.567" y="10.59" width="6.534" height="4.431" style="fill:none;stroke:#000;stroke-width:1px;"/><path d="M9.93,12.126l3.856,0" style="fill:none;stroke:#000;stroke-width:1px;"/></svg>