<?xml version="1.0" encoding="UTF-8" standalone="no"?><!DOCTYPE svg PUBLIC "-//W3C//DTD SVG 1.1//EN" "http://www.w3.org/Graphics/SVG/1.1/DTD/svg11.dtd"><svg width="100%" height="100%" viewBox="0 0 16 16" version="1.1" xmlns="http://www.w3.org/2000/svg" xmlns:xlink="http://www.w3.org/1999/xlink" xml:space="preserve" xmlns:serif="http://www.serif.com/" style="fill-rule:evenodd;clip-rule:evenodd;stroke-linejoin:round;stroke-miterlimit:2;"><path d="M13,10.88l-10,-0c-0.549,-0 -1,0.451 -1,1c0,0.548 0.451,1 1,1l10,-0c0.549,-0 1,-0.452 1,-1c0,-0.549 -0.451,-1 -1,-1Z"/><path d="M13,7l-10,0c-0.549,0 -1,0.451 -1,1c0,0.549 0.451,1 1,1l10,0c0.549,0 1,-0.451 1,-1c0,-0.549 -0.451,-1 -1,-1Z"/><path d="M3,5.12l10,0c0.549,0 1,-0.451 1,-1c0,-0.548 -0.451,-1 -1,-1l-10,0c-0.549,0 -1,0.452 -1,1c0,0.549 0.451,1 1,1Z"/></svg>