<svg viewBox="0 0 128 128" xmlns="http://www.w3.org/2000/svg"  fill="context-fill #eeeeee" fill-opacity="context-fill-opacity"><g><path d="M24,4l80,0c13.153,0.035 23.965,10.847 24,24l0,72c-0.039,13.151 -10.849,23.961 -24,24l-80,0c-13.158,-0.022 -23.978,-10.842 -24,-24l0,-72c0.057,-13.145 10.855,-23.943 24,-24Zm0,16c-4.389,0 -8,3.611 -8,8l0,72c0,4.389 3.611,8 8,8l28,0l0,-13l9,0l0,13l43,0c4.389,0 8,-3.611 8,-8l0,-72c0,-4.389 -3.611,-8 -8,-8l-43,0l0,61l-9,0l0,-61l-28,0Z" /><path d="M25,36l19,0c2.194,0 4,-1.806 4,-4c0,-2.194 -1.806,-4 -4,-4l-19,0c-2.194,0 -4,1.806 -4,4c0,2.194 1.806,4 4,4Z"/><path d="M25,52l19,0c2.194,0 4,-1.806 4,-4c0,-2.194 -1.806,-4 -4,-4l-19,0c-2.194,0 -4,1.806 -4,4c0,2.194 1.806,4 4,4Z"/><path d="M25,68l19,0c2.194,0 4,-1.806 4,-4c0,-2.194 -1.806,-4 -4,-4l-19,0c-2.194,0 -4,1.806 -4,4c0,2.194 1.806,4 4,4Z"/><path d="M27.172,90.758l9.93,9.93c1.561,1.561 4.095,1.561 5.656,0c1.561,-1.561 1.561,-4.095 0,-5.656l-3.101,-3.102l57.725,0c2.208,-0 4,-1.792 4,-4c-0,-2.208 -1.792,-4 -4,-4l-57.725,0l3.101,-3.102c1.561,-1.561 1.561,-4.095 0,-5.656c-1.561,-1.561 -4.095,-1.561 -5.656,-0l-9.93,9.93l-0.037,0.038l-0.082,0.091l-0.106,0.116l-0.026,0.031l-0.011,0.013l-0.007,0.009c-0.089,0.108 -0.172,0.22 -0.247,0.335c-0.055,0.084 -0.107,0.169 -0.155,0.257l-0.006,0.009c-0.034,0.063 -0.067,0.126 -0.097,0.19c-0.049,0.1 -0.093,0.201 -0.132,0.304l-0.01,0.027l-0.007,0.02c-0.026,0.069 -0.05,0.139 -0.071,0.21l-0.012,0.037l-0.003,0.011c-0.02,0.068 -0.038,0.136 -0.054,0.205l-0.006,0.023l-0.005,0.023l-0.006,0.028l-0.005,0.023c-0.022,0.103 -0.039,0.207 -0.053,0.311l-0.006,0.071l-0.011,0.078l-0.004,0.083l-0.008,0.087l-0,0.071l-0.004,0.072l0.004,0.17l-0,0.077l0.013,0.19l0.011,0.078l0.005,0.057c0.008,0.06 0.017,0.12 0.028,0.18l0.004,0.021l0.006,0.033l0.006,0.033l0.005,0.025l0.005,0.025l0.004,0.017l0.004,0.015l0.007,0.036l0.006,0.021c0.01,0.044 0.021,0.088 0.033,0.132l0.005,0.019l0.005,0.016l0.004,0.014l0.004,0.013l0.006,0.024l0.021,0.067l0.022,0.067l0.011,0.033l0.006,0.017l0.006,0.017l0.007,0.02l0.012,0.033l0.006,0.016c0.042,0.112 0.09,0.223 0.143,0.332l0.03,0.062l0.004,0.008c0.055,0.107 0.115,0.212 0.18,0.315l0.007,0.012l0.012,0.019l0.011,0.017l0.014,0.022l0.027,0.04c0.076,0.112 0.159,0.222 0.248,0.328l0.003,0.004l0.004,0.004l0.007,0.009l0.225,0.245Z"/></g></svg>