<?xml version="1.0" encoding="UTF-8" standalone="no"?>
<!DOCTYPE svg PUBLIC "-//W3C//DTD SVG 1.1//EN" "http://www.w3.org/Graphics/SVG/1.1/DTD/svg11.dtd">
<svg width="100%" height="100%" viewBox="0 0 500 300" version="1.1" xmlns="http://www.w3.org/2000/svg" xmlns:xlink="http://www.w3.org/1999/xlink" xml:space="preserve" xmlns:serif="http://www.serif.com/" style="fill-rule:evenodd;clip-rule:evenodd;stroke-linejoin:round;stroke-miterlimit:2;">
  <defs>
    <clipPath id="midmask">
        <path d="M481.174,18.259c-0,-5.765 -4.681,-10.446 -10.446,-10.446l-441.456,-0c-5.765,-0 -10.446,4.681 -10.446,10.446l0,263.482c0,5.765 4.681,10.446 10.446,10.446l441.456,0c5.765,0 10.446,-4.681 10.446,-10.446l-0,-263.482Z"/>
    </clipPath>
  </defs>
  <g clip-path="url(#midmask)" >
    <rect x="18.826" y="7.813" width="462.347" height="284.374" style="fill:#222;"/>
    <g class="page-content">
    <path d="M325.182,203.786c0,-2.595 -2.107,-4.702 -4.702,-4.702l-139.534,-0c-2.596,-0 -4.703,2.107 -4.703,4.702l-0,62.097c-0,2.596 2.107,4.703 4.703,4.703l139.534,-0c2.595,-0 4.702,-2.107 4.702,-4.703l0,-62.097Z" style="fill:#212121;"/>
    <path d="M325.182,205.353c0,-2.498 -2.028,-4.526 -4.525,-4.526l-139.888,-0c-2.498,-0 -4.526,2.028 -4.526,4.526l-0,59.76c-0,2.497 2.028,4.525 4.526,4.525l139.888,0c2.497,0 4.525,-2.028 4.525,-4.525l0,-59.76Z" style="fill:#666;"/>
    <path d="M357.275,101.478c-0,-1.838 -1.492,-3.33 -3.33,-3.33l-174.372,0c-1.838,0 -3.33,1.492 -3.33,3.33l-0,6.661c-0,1.838 1.492,3.33 3.33,3.33l174.372,0c1.838,0 3.33,-1.492 3.33,-3.33l-0,-6.661Z" style="fill:#ccc;"/>
    <path d="M295.459,121.538c0,-1.838 -1.492,-3.33 -3.33,-3.33l-112.556,-0c-1.838,-0 -3.33,1.492 -3.33,3.33l-0,6.661c-0,1.838 1.492,3.33 3.33,3.33l112.556,-0c1.838,-0 3.33,-1.492 3.33,-3.33l0,-6.661Z" style="fill:#ccc;"/>
    <g class="text-1">
        <rect x="176.243" y="152.713" width="268.156" height="3.592" style="fill:#ccc;"/>
        <rect x="176.243" y="157.73" width="268.156" height="3.592" style="fill:#ccc;"/>
        <rect x="176.243" y="162.747" width="268.156" height="3.592" style="fill:#ccc;"/>
        <rect x="176.243" y="167.764" width="268.156" height="3.592" style="fill:#ccc;"/>
        <rect x="176.243" y="172.781" width="234.341" height="3.592" style="fill:#ccc;"/>
        <rect x="176.243" y="177.798" width="268.156" height="3.592" style="fill:#ccc;"/>
        <rect x="176.243" y="182.815" width="268.156" height="3.592" style="fill:#ccc;"/>
        <rect x="176.243" y="187.832" width="268.156" height="3.592" style="fill:#ccc;"/>
    </g>
    <g class="text-3">
        <rect x="176.243" y="278.444" width="268.156" height="3.592" style="fill:#ccc;"/>
        <rect x="176.243" y="283.46" width="268.156" height="3.592" style="fill:#ccc;"/>
        <rect x="176.243" y="288.477" width="268.156" height="3.592" style="fill:#ccc;"/>
        <rect x="176.243" y="293.494" width="268.156" height="3.592" style="fill:#ccc;"/>
        <rect x="176.243" y="298.511" width="234.341" height="3.592" style="fill:#ccc;"/>
        <rect x="176.243" y="303.528" width="268.156" height="3.592" style="fill:#ccc;"/>
        <rect x="176.243" y="308.545" width="268.156" height="3.592" style="fill:#ccc;"/>
        <rect x="176.243" y="313.562" width="268.156" height="3.592" style="fill:#ccc;"/>
        <rect x="176.243" y="318.579" width="268.156" height="3.592" style="fill:#ccc;"/>
    </g>
    <g class="text-4">
        <rect x="333.574" y="200.594" width="110.825" height="3.592" style="fill:#ccc;"/>
        <rect x="333.574" y="205.611" width="31.2" height="3.592" style="fill:#ccc;"/>
        <rect x="333.574" y="210.628" width="110.825" height="3.592" style="fill:#ccc;"/>
        <rect x="333.574" y="215.645" width="110.825" height="3.592" style="fill:#ccc;"/>
        <rect x="333.574" y="220.662" width="110.825" height="3.592" style="fill:#ccc;"/>
        <rect x="333.574" y="225.679" width="110.825" height="3.592" style="fill:#ccc;"/>
        <rect x="333.574" y="230.695" width="89.323" height="3.592" style="fill:#ccc;"/>
        <rect x="333.574" y="235.712" width="110.825" height="3.592" style="fill:#ccc;"/>
        <rect x="333.574" y="240.729" width="110.825" height="3.592" style="fill:#ccc;"/>
        <rect x="333.574" y="245.746" width="110.825" height="3.592" style="fill:#ccc;"/>
        <rect x="333.574" y="250.763" width="110.825" height="3.592" style="fill:#ccc;"/>
        <rect x="333.574" y="255.78" width="110.825" height="3.592" style="fill:#ccc;"/>
        <rect x="333.574" y="260.797" width="43.744" height="3.592" style="fill:#ccc;"/>
        <rect x="333.574" y="265.814" width="110.825" height="3.592" style="fill:#ccc;"/>
    </g>
    </g>
    <g class="sidebar">
        <rect class="sidebar-backer" x="18.826" y="80.021" width="119.142" height="272.748" style="fill:#1a1a1a;"/>
        <g id="sidebar-content">
            <g class="sidebar-header">
                <rect x="18.826" y="80.021" width="119.142" height="25.419" style="fill:#666;"/>
                <path d="M107.901,89.231c0,-1.931 -1.567,-3.499 -3.499,-3.499l-74.646,-0c-1.932,-0 -3.5,1.568 -3.5,3.499l0,6.998c0,1.932 1.568,3.499 3.5,3.499l74.646,0c1.932,0 3.499,-1.567 3.499,-3.499l0,-6.998Z" style="fill:#fff;"/>
                <path d="M129.804,89.322c-0,-1.881 -1.528,-3.408 -3.409,-3.408l-6.816,-0c-1.881,-0 -3.408,1.527 -3.408,3.408l-0,6.816c-0,1.881 1.527,3.408 3.408,3.408l6.816,0c1.881,0 3.409,-1.527 3.409,-3.408l-0,-6.816Z" style="fill:#fff;"/>
            </g>
            <g class="sidebar-tabs" style="fill:#0290C3;">
                <path d="M129.804,114.916c-0,-1.925 -1.564,-3.488 -3.489,-3.488l-96.57,-0c-1.925,-0 -3.489,1.563 -3.489,3.488l0,6.977c0,1.925 1.564,3.488 3.489,3.488l96.57,0c1.925,0 3.489,-1.563 3.489,-3.488l-0,-6.977Z"/>
                <path d="M129.804,170.96c-0,-1.925 -1.564,-3.489 -3.489,-3.489l-96.57,0c-1.925,0 -3.489,1.564 -3.489,3.489l0,6.977c0,1.925 1.564,3.488 3.489,3.488l96.57,0c1.925,0 3.489,-1.563 3.489,-3.488l-0,-6.977Z"/>
                <path d="M129.804,152.369c-0,-1.925 -1.564,-3.489 -3.489,-3.489l-96.57,0c-1.925,0 -3.489,1.564 -3.489,3.489l0,6.977c0,1.925 1.564,3.488 3.489,3.488l96.57,0c1.925,0 3.489,-1.563 3.489,-3.488l-0,-6.977Z"/>
                <path d="M129.804,133.507c-0,-1.925 -1.564,-3.488 -3.489,-3.488l-96.57,-0c-1.925,-0 -3.489,1.563 -3.489,3.488l0,6.977c0,1.925 1.564,3.488 3.489,3.488l96.57,0c1.925,0 3.489,-1.563 3.489,-3.488l-0,-6.977Z"/>
            </g>
        <!-- Animate the sidebar-content rising 50 over 1 second -->
        <!-- <animate xlink:href="#sidebar-content" attributeName="transform" from="translate(0 0)" begin="click" to="translate(0 -50)" dur="1s" fill="freeze" /> -->
        <!-- <animateTransform xlink:href="#sidebar-content" attributeName="transform" type="translate" values="0 0; 0 -50" begin="click" dur="1s" fill="freeze" calcMode="spline" /> -->
        </g>
    </g>
    <g class="top-bar">
        <path class="top-bar-backer" d="M480.679,18.164c0,-5.557 -4.512,-10.069 -10.07,-10.069l-440.977,-0c-5.691,-0 -10.311,4.62 -10.311,10.311l-0,61.615l461.358,-0l0,-61.857Z" style="fill:#1a1a1a;"/>
        <path d="M45.344,55.613c-0,-2.427 -1.971,-4.397 -4.397,-4.397l-8.793,0c-2.427,0 -4.397,1.97 -4.397,4.397l0,8.793c0,2.426 1.97,4.396 4.397,4.396l8.793,0c2.426,0 4.397,-1.97 4.397,-4.396l-0,-8.793Z" style="fill:#F5C828;"/>
        <path d="M145.852,23.163c-0,-2.427 -1.97,-4.397 -4.397,-4.397l-109.301,0c-2.427,0 -4.397,1.97 -4.397,4.397l0,8.793c0,2.427 1.97,4.397 4.397,4.397l109.301,-0c2.427,-0 4.397,-1.97 4.397,-4.397l-0,-8.793Z" style="fill:#0290C3;"/>
        <path d="M271.372,23.163c0,-2.427 -1.97,-4.397 -4.396,-4.397l-109.302,0c-2.426,0 -4.396,1.97 -4.396,4.397l-0,8.793c-0,2.427 1.97,4.397 4.396,4.397l109.302,-0c2.426,-0 4.396,-1.97 4.396,-4.397l0,-8.793Z" style="fill:#0290C3;"/>
        <path d="M396.744,23.163c-0,-2.427 -1.97,-4.397 -4.397,-4.397l-109.301,0c-2.426,0 -4.396,1.97 -4.396,4.397l-0,8.793c-0,2.427 1.97,4.397 4.396,4.397l109.301,-0c2.427,-0 4.397,-1.97 4.397,-4.397l-0,-8.793Z" style="fill:#0290C3;"/>
        <path d="M73.081,55.613c-0,-2.427 -1.97,-4.397 -4.397,-4.397l-8.793,0c-2.426,0 -4.396,1.97 -4.396,4.397l-0,8.793c-0,2.426 1.97,4.396 4.396,4.396l8.793,0c2.427,0 4.397,-1.97 4.397,-4.396l-0,-8.793Z" style="fill:#F5C828;"/>
        <path d="M100.831,55.613c0,-2.427 -1.97,-4.397 -4.396,-4.397l-8.793,0c-2.427,0 -4.397,1.97 -4.397,4.397l0,8.793c0,2.426 1.97,4.396 4.397,4.396l8.793,0c2.426,0 4.396,-1.97 4.396,-4.396l0,-8.793Z" style="fill:#F5C828;"/>
        <path d="M460.871,54.47c-0,-3.129 -2.541,-5.67 -5.67,-5.67l-333.36,0c-3.13,0 -5.67,2.541 -5.67,5.67l-0,11.339c-0,3.129 2.54,5.67 5.67,5.67l333.36,-0c3.129,-0 5.67,-2.541 5.67,-5.67l-0,-11.339Z" style="fill:#F5C828;"/>
    </g>
    </g>
    <path d="M486.174,18.259c-0,-8.525 -6.921,-15.446 -15.446,-15.446l-441.456,-0c-8.525,-0 -15.446,6.921 -15.446,15.446l0,263.482c0,8.525 6.921,15.446 15.446,15.446l441.456,0c8.525,0 15.446,-6.921 15.446,-15.446l-0,-263.482Zm-5,-0c-0,-5.765 -4.681,-10.446 -10.446,-10.446l-441.456,-0c-5.765,-0 -10.446,4.681 -10.446,10.446l0,263.482c0,5.765 4.681,10.446 10.446,10.446l441.456,0c5.765,0 10.446,-4.681 10.446,-10.446l-0,-263.482Z" style="fill:#fff;"/>
</svg>
