<?xml version="1.0" encoding="UTF-8" standalone="no"?><!DOCTYPE svg PUBLIC "-//W3C//DTD SVG 1.1//EN" "http://www.w3.org/Graphics/SVG/1.1/DTD/svg11.dtd"><svg width="100%" height="100%" viewBox="0 0 128 128" version="1.1" xmlns="http://www.w3.org/2000/svg" xmlns:xlink="http://www.w3.org/1999/xlink" xml:space="preserve" xmlns:serif="http://www.serif.com/" style="fill-rule:evenodd;clip-rule:evenodd;stroke-linecap:round;stroke-linejoin:round;stroke-miterlimit:1.5;"><path d="M24,4l80,0c13.153,0.035 23.965,10.847 24,24l0,72c-0.039,13.151 -10.849,23.961 -24,24l-80,0c-13.158,-0.022 -23.978,-10.842 -24,-24l0,-72c0.057,-13.145 10.855,-23.943 24,-24Zm0,16c-4.389,0 -8,3.611 -8,8l0,72c0,4.389 3.611,8 8,8l28,0l0,-13l9,0l0,13l43,0c4.389,0 8,-3.611 8,-8l0,-72c0,-4.389 -3.611,-8 -8,-8l-43,0l0,61l-9,0l0,-61l-28,0Z" style="fill:#5d5d5d;fill-rule:nonzero;"/><path d="M25,36l19,0c2.194,0 4,-1.806 4,-4c0,-2.194 -1.806,-4 -4,-4l-19,0c-2.194,0 -4,1.806 -4,4c0,2.194 1.806,4 4,4Z" style="fill:#5d5d5d;fill-rule:nonzero;"/><path d="M25,52l19,0c2.194,0 4,-1.806 4,-4c0,-2.194 -1.806,-4 -4,-4l-19,0c-2.194,0 -4,1.806 -4,4c0,2.194 1.806,4 4,4Z" style="fill:#5d5d5d;fill-rule:nonzero;"/><path d="M25,68l19,0c2.194,0 4,-1.806 4,-4c0,-2.194 -1.806,-4 -4,-4l-19,0c-2.194,0 -4,1.806 -4,4c0,2.194 1.806,4 4,4Z" style="fill:#5d5d5d;fill-rule:nonzero;"/><path d="M97.382,87.93l-67.382,-0l9.93,-9.93l-9.93,9.93l9.93,9.93" style="fill:none;stroke:#5d5d5d;stroke-width:8px;"/></svg>