<svg viewBox="0 0 16 16" xmlns="http://www.w3.org/2000/svg" fill="context-fill" style="fill-rule:evenodd;clip-rule:evenodd;stroke-linejoin:round;stroke-miterlimit:2;"><path d="M11.277,12.81c-0.276,0 -0.5,0.224 -0.5,0.5l-0,0.68c-0,0.276 0.224,0.5 0.5,0.5l0.68,0c0.276,0 0.5,-0.224 0.5,-0.5l-0,-0.68c0,-0.276 -0.224,-0.5 -0.5,-0.5l-0.68,0Zm2.248,0c-0.276,0 -0.5,0.224 -0.5,0.5l-0,0.68c-0,0.276 0.224,0.5 0.5,0.5l0.68,0c0.276,0 0.5,-0.224 0.5,-0.5l-0,-0.68c-0,-0.276 -0.224,-0.5 -0.5,-0.5l-0.68,0Zm-4.493,0c-0.276,0 -0.5,0.224 -0.5,0.5l-0,0.68c-0,0.276 0.224,0.5 0.5,0.5l0.68,0c0.276,0 0.5,-0.224 0.5,-0.5l-0,-0.68c-0,-0.276 -0.224,-0.5 -0.5,-0.5l-0.68,0Zm-1.288,0.54c-0.003,0.475 -0.395,0.865 -0.87,0.865l-1.843,-0c-1.457,-0.007 -2.653,-1.203 -2.66,-2.66l-0,-8.004c-0,-0.005 -0.004,-0.009 -0.008,-0.009c-0.482,-0.002 -0.878,-0.398 -0.881,-0.88c-0,-0.483 0.398,-0.881 0.881,-0.881l2.712,-0c0.004,-0 0.008,-0.003 0.009,-0.007c0.211,-1.027 1.122,-1.771 2.17,-1.774c1.05,-0 1.962,0.746 2.171,1.774c-0,0.004 0.004,0.007 0.008,0.007l2.713,-0c0.483,-0 0.88,0.398 0.88,0.881c-0,0.483 -0.397,0.88 -0.88,0.88c-0.005,-0 -0.009,0.004 -0.009,0.009l-0,5.09c-0.001,0.479 -0.394,0.873 -0.873,0.874l-0.013,-0c-0.479,-0.001 -0.874,-0.395 -0.875,-0.874l-0,-5.09c-0,-0.005 -0.004,-0.009 -0.009,-0.009l-6.226,-0c-0.004,-0 -0.008,0.004 -0.008,0.009l-0,8.004c-0,0.493 0.405,0.899 0.898,0.899l1.843,0c0.477,0.001 0.87,0.394 0.87,0.871l-0,0.025Zm3.533,-2.682c-0.276,-0 -0.5,0.224 -0.5,0.5l-0,0.68c-0,0.276 0.224,0.5 0.5,0.5l0.68,-0c0.276,-0 0.5,-0.224 0.5,-0.5l-0,-0.68c0,-0.276 -0.224,-0.5 -0.5,-0.5l-0.68,-0Zm2.248,-0c-0.276,-0 -0.5,0.224 -0.5,0.5l-0,0.68c-0,0.276 0.224,0.5 0.5,0.5l0.68,-0c0.276,-0 0.5,-0.224 0.5,-0.5l-0,-0.68c-0,-0.276 -0.224,-0.5 -0.5,-0.5l-0.68,-0Zm-4.493,-0c-0.276,-0 -0.5,0.224 -0.5,0.5l-0,0.68c-0,0.276 0.224,0.5 0.5,0.5l0.68,-0c0.276,-0 0.5,-0.224 0.5,-0.5l-0,-0.68c-0,-0.276 -0.224,-0.5 -0.5,-0.5l-0.68,-0Zm-3.557,-0.011c-0.239,-0.001 -0.434,-0.197 -0.435,-0.436l-0,-5.336c-0,-0.239 0.196,-0.436 0.435,-0.436c0.24,-0 0.436,0.197 0.436,0.436l-0,5.336c-0,0.24 -0.196,0.436 -0.436,0.436Zm1.779,-0c-0.239,-0.001 -0.435,-0.197 -0.436,-0.436l-0,-5.336c-0,-0.239 0.197,-0.436 0.436,-0.436c0.239,-0 0.436,0.197 0.436,0.436l-0,5.336c-0,0.24 -0.197,0.436 -0.436,0.436Zm2.215,-5.772l0,4.286c0,0.239 -0.197,0.436 -0.436,0.436l-0.003,-0c-0.238,-0.002 -0.433,-0.198 -0.433,-0.436l-0,-4.286c-0,-0.239 0.197,-0.436 0.436,-0.436c0.239,-0 0.436,0.197 0.436,0.436Zm-2.215,-4.011c-0.561,0.006 -1.06,0.366 -1.245,0.895c-0.001,0.003 -0.001,0.006 0.001,0.008c0.002,0.003 0.004,0.004 0.007,0.004l2.474,-0c0.003,-0 0.006,-0.001 0.008,-0.004c0.001,-0.002 0.002,-0.005 0.001,-0.008c-0.185,-0.529 -0.685,-0.888 -1.246,-0.895Z" style="fill-rule:nonzero;"/></svg>