<svg viewBox="0 0 16 16" xmlns="http://www.w3.org/2000/svg" fill="context-fill"> <path d="M7,10.5c0,-0.828 -0.672,-1.5 -1.5,-1.5l-3,0c-0.828,0 -1.5,0.672 -1.5,1.5l0,3c0,0.828 0.672,1.5 1.5,1.5l3,0c0.828,0 1.5,-0.672 1.5,-1.5l0,-3Zm8,0c0,-0.828 -0.672,-1.5 -1.5,-1.5l-3,0c-0.828,0 -1.5,0.672 -1.5,1.5l0,3c0,0.828 0.672,1.5 1.5,1.5l3,0c0.828,0 1.5,-0.672 1.5,-1.5l0,-3Zm-4,-7.5l-1,0c-0.265,-0 -0.52,0.105 -0.707,0.293c-0.188,0.187 -0.293,0.442 -0.293,0.707c0,0.265 0.105,0.52 0.293,0.707c0.187,0.188 0.442,0.293 0.707,0.293l1,-0l0,1c-0,0.265 0.105,0.52 0.293,0.707c0.187,0.188 0.442,0.293 0.707,0.293c0.265,-0 0.52,-0.105 0.707,-0.293c0.188,-0.187 0.293,-0.442 0.293,-0.707l-0,-1l1,0c0.265,0 0.52,-0.105 0.707,-0.293c0.188,-0.187 0.293,-0.442 0.293,-0.707c-0,-0.265 -0.105,-0.52 -0.293,-0.707c-0.187,-0.188 -0.442,-0.293 -0.707,-0.293l-1,0l-0,-1c0,-0.265 -0.105,-0.52 -0.293,-0.707c-0.187,-0.188 -0.442,-0.293 -0.707,-0.293c-0.265,0 -0.52,0.105 -0.707,0.293c-0.188,0.187 -0.293,0.442 -0.293,0.707l0,1Zm-4,-0.5c0,-0.828 -0.672,-1.5 -1.5,-1.5l-3,0c-0.828,0 -1.5,0.672 -1.5,1.5l0,3c0,0.828 0.672,1.5 1.5,1.5l3,0c0.828,0 1.5,-0.672 1.5,-1.5l0,-3Z"/> </svg>
