<svg viewBox="0 0 16 16" xmlns="http://www.w3.org/2000/svg" fill="context-fill"> <path d="M7,10.5c0,-0.828 -0.672,-1.5 -1.5,-1.5l-3,0c-0.828,0 -1.5,0.672 -1.5,1.5l0,3c0,0.828 0.672,1.5 1.5,1.5l3,0c0.828,0 1.5,-0.672 1.5,-1.5l0,-3Zm8,0c0,-0.828 -0.672,-1.5 -1.5,-1.5l-3,0c-0.828,0 -1.5,0.672 -1.5,1.5l0,3c0,0.828 0.672,1.5 1.5,1.5l3,0c0.828,0 1.5,-0.672 1.5,-1.5l0,-3Zm-0.08,-8.88c-0.101,-0.244 -0.296,-0.439 -0.54,-0.54c-0.12,-0.051 -0.249,-0.078 -0.38,-0.08l-4,0c-0.549,0 -1,0.451 -1,1c0,0.549 0.451,1 1,1l1.59,0l-2.3,2.29c-0.189,0.188 -0.296,0.443 -0.296,0.71c0,0.267 0.107,0.522 0.296,0.71c0.188,0.189 0.443,0.296 0.71,0.296c0.267,-0 0.522,-0.107 0.71,-0.296l2.29,-2.3l0,1.59c0,0.549 0.451,1 1,1c0.549,0 1,-0.451 1,-1l0,-4c-0.002,-0.131 -0.029,-0.26 -0.08,-0.38Zm-7.92,0.88c0,-0.828 -0.672,-1.5 -1.5,-1.5l-3,0c-0.828,0 -1.5,0.672 -1.5,1.5l0,3c0,0.828 0.672,1.5 1.5,1.5l3,0c0.828,0 1.5,-0.672 1.5,-1.5l0,-3Z"/> </svg>
